<svg id="Layer_1" data-name="Layer 1" xmlns="http://www.w3.org/2000/svg" viewBox="0 0 50 50"><defs><style>.cls-1{fill:#73f9bc;}</style></defs><title>instagram</title><path class="cls-1" d="M24.52,28.52a4,4,0,0,0,4-4,4,4,0,0,0-4-4,4,4,0,1,0,0,8Z"/><polygon class="cls-1" points="33.26 19.62 33.26 16.26 33.26 15.76 32.76 15.76 29.4 15.77 29.41 19.63 33.26 19.62"/><path class="cls-1" d="M24.52,4.52a20,20,0,1,0,20,20A20,20,0,0,0,24.52,4.52ZM35.89,22.18V31.5a4.4,4.4,0,0,1-4.4,4.39H17.54a4.4,4.4,0,0,1-4.4-4.39v-14a4.4,4.4,0,0,1,4.4-4.4h14a4.4,4.4,0,0,1,4.4,4.4Z"/><path class="cls-1" d="M30.74,24.52a6.22,6.22,0,1,1-12-2.34H15.36V31.5a2.17,2.17,0,0,0,2.18,2.17h14a2.18,2.18,0,0,0,2.18-2.17V22.18H30.28A6.26,6.26,0,0,1,30.74,24.52Z"/></svg>