<svg id="Layer_1" data-name="Layer 1" xmlns="http://www.w3.org/2000/svg" viewBox="0 0 50 50"><defs><style>.cls-1{fill:#73f9bc;}</style></defs><title>twitter</title><path class="cls-1" d="M24.52,4.52a20,20,0,1,0,20,20A20,20,0,0,0,24.52,4.52Zm8.92,15.42c0,.2,0,.4,0,.6a13.1,13.1,0,0,1-20.15,11,9.87,9.87,0,0,0,1.1.06,9.25,9.25,0,0,0,5.71-2,4.62,4.62,0,0,1-4.3-3.2,4.94,4.94,0,0,0,.87.08,4.42,4.42,0,0,0,1.21-.16,4.59,4.59,0,0,1-3.69-4.51v-.06a4.59,4.59,0,0,0,2.08.58,4.62,4.62,0,0,1-2-3.83,4.55,4.55,0,0,1,.62-2.32,13,13,0,0,0,9.49,4.81A4.51,4.51,0,0,1,24.23,20a4.61,4.61,0,0,1,8-3.15,9.11,9.11,0,0,0,2.93-1.11,4.66,4.66,0,0,1-2,2.54,9,9,0,0,0,2.64-.72A9.25,9.25,0,0,1,33.44,19.94Z"/></svg>