<svg id="Layer_1" data-name="Layer 1" xmlns="http://www.w3.org/2000/svg" viewBox="0 0 50 50"><defs><style>.cls-1{fill:#73f9bc;}</style></defs><title>youtube</title><path class="cls-1" d="M20.6,32.53l13.94-8-13.94-8Z"/><path class="cls-1" d="M25.94,4.5a20,20,0,1,0,20,20A20,20,0,0,0,25.94,4.5Zm12.49,20a33.24,33.24,0,0,1-.51,6,3.14,3.14,0,0,1-2.21,2.21c-2,.51-9.77.51-9.77.51s-7.81,0-9.78-.54A3.13,3.13,0,0,1,14,30.51a33.12,33.12,0,0,1-.51-6,33.24,33.24,0,0,1,.51-6,3.22,3.22,0,0,1,2.21-2.23c1.95-.51,9.78-.51,9.78-.51s7.82,0,9.77.54a3.11,3.11,0,0,1,2.21,2.2A31.6,31.6,0,0,1,38.43,24.52Z"/></svg>